<svg width="729" height="554" viewBox="0 0 729 554" fill="none" xmlns="http://www.w3.org/2000/svg">
<path d="M520.76 5C606.553 5 676.26 75.8752 676.26 163.5C676.26 251.125 606.553 322 520.76 322C434.966 322 365.26 251.125 365.26 163.5C365.26 75.8752 434.966 5 520.76 5Z" stroke="white" stroke-width="10"/>
<path d="M5.00098 548.482L723.742 255.259" stroke="white" stroke-width="10" stroke-linecap="round"/>
<circle cx="253.76" cy="129.5" r="38.5" fill="white"/>
<path d="M95.1777 479.298L157.26 404" stroke="white" stroke-width="10" stroke-linecap="round"/>
<path d="M254.26 435L270.26 358" stroke="white" stroke-width="10" stroke-linecap="round"/>
<path d="M269.26 358L177.26 322" stroke="white" stroke-width="12" stroke-linecap="round"/>
<path d="M176.26 327L156.26 404" stroke="white" stroke-width="12" stroke-linecap="round"/>
<path d="M214.26 202L178.26 324" stroke="white" stroke-width="15" stroke-linecap="round"/>
<path d="M292.26 185L213.26 199" stroke="white" stroke-width="10" stroke-linecap="round"/>
<path d="M213.26 210L284.26 219" stroke="white" stroke-width="10" stroke-linecap="round"/>
<path d="M355.26 201L284.26 219" stroke="white" stroke-width="10" stroke-linecap="round"/>
<path d="M356.26 165L292.26 185" stroke="white" stroke-width="10" stroke-linecap="round"/>
<path d="M360.26 146L356.26 165" stroke="white" stroke-width="10" stroke-linecap="round"/>
<path d="M360.26 185L356.26 200" stroke="white" stroke-width="10" stroke-linecap="round"/>
<path d="M95.2598 480L123.26 491" stroke="white" stroke-width="10" stroke-linecap="round"/>
<path d="M254.26 435L286.26 425" stroke="white" stroke-width="10" stroke-linecap="round"/>
</svg>
