<svg width="832" height="832" viewBox="0 0 832 832" fill="none" xmlns="http://www.w3.org/2000/svg">
<rect width="832" height="832" fill="black"/>
<path d="M581.5 140C667.293 140 737 210.875 737 298.5C737 386.125 667.293 457 581.5 457C495.707 457 426 386.125 426 298.5C426 210.875 495.707 140 581.5 140Z" stroke="white" stroke-width="10"/>
<path d="M65.7412 683.482L784.482 390.259" stroke="white" stroke-width="10" stroke-linecap="round"/>
<circle cx="314.5" cy="264.5" r="38.5" fill="white"/>
<path d="M155.918 614.298L218 539" stroke="white" stroke-width="10" stroke-linecap="round"/>
<path d="M315 570L331 493" stroke="white" stroke-width="10" stroke-linecap="round"/>
<path d="M330 493L238 457" stroke="white" stroke-width="12" stroke-linecap="round"/>
<path d="M237 462L217 539" stroke="white" stroke-width="12" stroke-linecap="round"/>
<path d="M275 337L239 459" stroke="white" stroke-width="15" stroke-linecap="round"/>
<path d="M353 320L274 334" stroke="white" stroke-width="10" stroke-linecap="round"/>
<path d="M274 345L345 354" stroke="white" stroke-width="10" stroke-linecap="round"/>
<path d="M416 336L345 354" stroke="white" stroke-width="10" stroke-linecap="round"/>
<path d="M417 300L353 320" stroke="white" stroke-width="10" stroke-linecap="round"/>
<path d="M421 281L417 300" stroke="white" stroke-width="10" stroke-linecap="round"/>
<path d="M421 320L417 335" stroke="white" stroke-width="10" stroke-linecap="round"/>
<path d="M156 615L184 626" stroke="white" stroke-width="10" stroke-linecap="round"/>
<path d="M315 570L347 560" stroke="white" stroke-width="10" stroke-linecap="round"/>
</svg>
